<svg xmlns="http://www.w3.org/2000/svg" viewBox="0 0 256 256" width="50" height="50"><path d="M128 10.24C63.068 10.24 10.24 63.063 10.24 128c0 64.937 52.828 117.76 117.76 117.76S245.76 192.937 245.76 128c0-64.937-52.828-117.76-117.76-117.76zM92.16 179.2H71.68v-76.8h20.48zM81.92 87.04A10.237 10.237 0 0171.68 76.8c0-5.658 4.582-10.24 10.24-10.24s10.24 4.582 10.24 10.24-4.582 10.24-10.24 10.24zm107.52 92.16h-20.48v-38.4c0-9.856-8.064-17.92-17.92-17.92-9.856 0-17.92 8.064-17.92 17.92v38.4h-20.48v-76.8h20.48v9.298c5.98-5.745 14.09-9.298 23.04-9.298 18.38 0 33.28 14.9 33.28 33.28z" font-family="none" font-weight="none" font-size="none" text-anchor="none"/></svg>