<svg width="18" height="18" fill="none" xmlns="http://www.w3.org/2000/svg"><path d="M9.01 3.465L9 1l-.01 2.466.01-.004.01.003zm3.897 1.615l.01.004.003.01 1.737-1.75-1.75 1.736zm1.628 3.91l.004.01-.004.01L17 9l-2.465-.01zm-1.615 3.917l-.004.01-.01.003 1.75 1.737-1.736-1.75zm-3.91 1.628l-.01.004-.01-.005L9 17l.01-2.465zM5.093 12.92l-.01-.004-.003-.01-1.737 1.75 1.75-1.736zM3.466 9.01L3.462 9l.004-.01L1 9l2.466.01zM5.08 5.093l.004-.01.01-.003-1.75-1.737 1.736 1.75zm2.615.755a3.411 3.411 0 112.61 6.303 3.411 3.411 0 01-2.61-6.303z" stroke="#fdfdff" stroke-linecap="square" stroke-linejoin="round"/></svg>